# xmcd CD database file
#
# Track frame offsets:
#	150
#	17497
#	31119
#	47227
#	61672
#	77710
#	90595
#	104125
#	121375
#	130752
#
# Disc length: 1983 seconds
#
# Revision: 0
# Processed by: cddbd v1.5.2PL0 Copyright (c) Steve Scherf et al.
# Submitted via: CdAid (MTCDDB.DLL V2003.12.21)
#
DISCID=7707bd0a
DTITLE=Nino Marques e Marquinhos - Nino Marques e Marquinhos
DYEAR=1994
DGENRE=Folk
TTITLE0=Quando você me disse adeus
TTITLE1=Cara a cara com a solidão
TTITLE2=Meu coração sem você
TTITLE3=Larga dele e vem pra mim
TTITLE4=Saudade da campina
TTITLE5=Eu estou apaixonado por você
TTITLE6=Te amo como ninguém te amou
TTITLE7=Por causa do seu adeus
TTITLE8=Xote do motoqueiro
TTITLE9=Só seu amigo
EXTD=ID3G:  80 YEAR: 1994
EXTT0=
EXTT1=
EXTT2=
EXTT3=
EXTT4=
EXTT5=
EXTT6=
EXTT7=
EXTT8=
EXTT9=
PLAYORDER=
